<?xml version="1.0" encoding="UTF-8"?>
<svg id="a" data-name="Layer 1" xmlns="http://www.w3.org/2000/svg" viewBox="0 0 400 400">
  <defs>
    <style>
      .b {
        fill: #2F6F73;
      }
    </style>
  </defs>
  <path class="b" d="M47.16,166.98c-.02,3.2-3,5.57-5.9,6.89-2.43,1.08-4.98,1.82-7.55,2.52-2.57,.72-5.13,1.44-7.7,2.16,1-9.65,2.68-19.09,4.96-28.28,4.9,3.23,9.37,6.75,12.95,10.59,1.63,1.73,3.26,3.77,3.24,6.12Z"/>
  <path class="b" d="M118.53,51.49c-5.12-.72-12.66-4.26-16.94-7.16-1.25-.85-2.51-1.7-3.76-2.55,4.74-4.02,9.65-7.78,14.68-11.27,1.84,7.04,3.84,14.04,6.02,20.98Z"/>
  <path class="b" d="M178.22,284.03c-27.29-54.33-67.73-102.04-116.86-137.85-7.88-5.74-15.98-11.2-24.12-16.59,10.53-29.19,27.18-55.09,47.66-75.83,17.34,8.72,32.93,20.93,45.39,35.8,17.62,20.99,28.88,46.72,35.83,73.19,6.97,26.49,9.83,53.86,12.12,81.16,1.12,13.36,2.11,26.89-.02,40.12Z"/>
  <path class="b" d="M188.91,398.43c-84.57-7.01-164.04-93.07-164.04-198.2,0-2.26,.03-4.5,.1-6.73,6.47-1.27,12.97-2.19,19.28-2.93,9.1-1.09,18.37-2.16,27.4-.61,8.16,1.4,16.33,3.99,23.23,8.56,14.19,9.41,33.67,28.96,47.38,48.88,14.02,20.38,22.14,44.15,29.97,67.6,9.01,27.04,17.93,55.24,16.66,83.43Z"/>
  <path class="b" d="M198.36,128.14c2.32,21.07,2.12,42.95-5.33,62.82,0,0-5.4-28.01-10.56-41.75-7.32-19.38-17.82-37.33-27.14-55.81-7.13-14.12-13.59-28.58-19.34-43.32-3.59-9.21-6.82-18.64-9.59-28.24C149.45,8.85,174.63,1.57,199.99,1.57c.69,0,1.38,0,2.07,.01,.55,.62,1.16,1.2,1.83,1.71-9.25,12.46-14.72,27.69-15.53,43.17-.31,6.25,.1,12.51,.75,18.72,2.16,21.1,6.92,41.86,9.25,62.95Z"/>
  <path class="b" d="M315.94,54.61c-9.55,23.05-30.48,41.5-52.4,53.54-4.06,2.23-8.2,4.33-12.06,6.89-19.34,12.85-29.31,36.19-37.86,57.77,4.46-16.13,4.14-33.27,1.94-49.87-2.2-16.62-6.19-32.91-8.99-49.43-.72-4.3-1.38-8.65-1.46-13-.14-6.27,.86-12.5,1.85-18.68,1.88-11.66,3.85-23.59,9.54-33.96,.91-1.67,1.91-3.29,2.91-4.9,35.34,5.1,69.35,23.78,96.52,51.63Z"/>
  <path class="b" d="M363.86,132.74c-3.31,4.3-7.26,8.09-11.82,11.14-6.66,4.46-14.29,7.21-21.89,9.75-7.43,2.45-14.92,4.75-22.45,6.86-16.21,4.53-33,8.38-47.15,17.48-18.35,11.82-30.29,31.14-41.61,49.81,.33-4.28,.75-10.26,1.37-14.52,.96-6.6,1.91-13.21,3.36-19.72,7.09-31.68,26.49-60.41,53.18-78.83,8.19-5.66,17.08-10.41,24.41-17.14,9.71-8.94,16.32-22.68,21.71-35.35,17.56,19.94,31.77,43.92,40.88,70.54Z"/>
  <path class="b" d="M373.39,173.45c-7.39-.63-14.68-2.34-21.59-5.07,6.49-2.92,12.92-6.03,19.17-9.46,.98,4.79,1.78,9.63,2.42,14.53Z"/>
  <path class="b" d="M375.13,200.23c0,104.57-78.64,190.29-162.7,198.09-2.05-39.07-1.55-78.89,9.95-116.24,11.81-38.28,39.5-72.98,62.37-86.79,12.34-7.46,27.49-9.17,41.85-10.41,16.02-1.38,32.07,1.45,48.11,2.05,.28,4.4,.43,8.84,.43,13.31Z"/>
</svg>